<?xml version="1.0" ?><!DOCTYPE svg  PUBLIC '-//W3C//DTD SVG 1.1//EN'  'http://www.w3.org/Graphics/SVG/1.1/DTD/svg11.dtd'><svg id="Calque_1" style="enable-background:new 0 0 100 100;" version="1.1" viewBox="0 0 100 100" xml:space="preserve" xmlns="http://www.w3.org/2000/svg" xmlns:xlink="http://www.w3.org/1999/xlink"><g><g><path d="M20.7,63.2c-0.9-0.6-1.9-1.3-2.9-2c0,0,0,0,0,0.1c-0.4,3.3-0.9,7.4-1.7,8.8C14,74.4,6.8,89.3,6.7,89.5     c-1.1,2.2-0.2,4.9,2.1,6c0.6,0.3,1.3,0.5,2,0.5c1.7,0,3.3-0.9,4-2.5c0.1-0.1,7.3-15,9.5-19.4c0.9-1.7,1.4-4,1.8-6.6     c-1.5-1.4-3-2.6-4.3-3.5C21.5,63.7,21.1,63.5,20.7,63.2z"/><ellipse cx="27.1" cy="13.7" rx="9.6" ry="9.6" transform="matrix(1.677676e-02 -0.9999 0.9999 1.677676e-02 12.9699 40.498)"/><path d="M96.5,59.3l-7.8-3.6c-0.6-0.3-1.1-0.7-1.6-1.2l-1.7-2.1C85,51.8,84,52,83.7,52.7c-0.9,2.5-2.4,7-3.1,8.6l-0.4-0.2     c-0.4-0.1-0.8-0.2-1.1,0c-0.2,0.1-0.4,0.2-0.6,0.4c-2-0.3-17.4-2.9-24.3-8.9c0.6-1.4,0.3-3.1-1-4.1c-2.8-2.2-7.2-6.2-8.3-8     c-0.3-0.5-0.7-1.3-1.1-2.2c-2-4.2-5.6-12.1-13.7-12.1c0,0-4.4-0.1-5.7-0.1C15.1,26,9.1,34.1,7.7,37c-1.4,2.9-4.5,12.1-5.1,14.1     C2.1,53,3.2,54.9,5,55.4c0.3,0.1,0.6,0.1,0.9,0.1c1.5,0,2.9-1,3.3-2.5c0.5-1.9,3.5-10.7,4.6-13c0.3-0.6,1.3-2.2,2.9-3.7     c-1.6,6.5-1,15.4-0.6,19.1c0.2,2.5,4.4,4.9,6.9,6.6c4,2.8,10,8.9,11.4,11.7c1,2.2,5.2,14,7.2,19.3c0.7,1.8,2.4,2.9,4.2,2.9     c0.5,0,1.1-0.1,1.6-0.3c2.3-0.9,3.5-3.5,2.6-5.8C49.9,89.2,44,73,42.7,70.1c-1.1-2.5-5.6-8.1-8.6-11.3c-0.1-0.1-0.1-0.1-0.2-0.2     c-0.1-1.6,0-12.8,1.8-20.8c0.6,1,1.1,2.2,1.7,3.4c0.5,1.2,1,2.2,1.5,3c2.1,3.4,8.6,8.7,9.8,9.7c0.6,0.5,1.4,0.8,2.2,0.8     c0.5,0,1.1-0.1,1.6-0.4c7.2,6.2,21.8,8.9,25.2,9.4c0,0.3,0.2,0.6,0.4,0.8c-1.1,1.1-2.5,1.9-3.6,2.1c-2.2,0.3-17,1-17,1l-3.4-2.5     c-0.6-0.5-1.5-0.3-2,0.3c-0.2,0.3-0.3,0.6-0.3,0.9c0,0.4,0.2,0.8,0.5,1.1l2.9,2.5c0,0-0.6,2-0.8,5.3c-0.1,3.3,2.2,7.9,2.5,9.7     c0.3,1.8,0.1,6.6,0.2,8.2c0.1,1.6,1,2.8,2,2.8h3.7c1,0,1.9-0.9,1.7-2l-0.1-0.5c-0.1-0.8-0.8-1.5-1.6-1.6l-1.2-0.1l1.4-3.1     c0.7-1.5,1-3.2,1.1-4.8l0.1-3.1c1.7-0.1,3.4,0,5.1,0.1c3.1,0.3,7.5,0.3,11.2,0.2l0.7,5.8L81,92.9c-0.1,1.7,1.3,3.1,2.9,3.1h3     c1.2,0,2.1-1.1,1.9-2.3c-0.1-0.4-0.2-0.8-0.5-1.1c-0.8-0.8-2.7-0.9-2.7-0.9s1.6-9.3,2.1-11.8c0.5-2.5,0.2-8.7,0.4-10.8     c0-0.1,0-0.2,0-0.2c0,0,0.1,0,0.1,0c0.6,0,1.1-0.3,1.3-0.9l0.4-1.1c0.1-0.4,0.2-0.8,0-1.1c-0.1-0.4-0.4-0.6-0.8-0.8l-0.2-0.1     c0.1-0.3,0.2-0.6,0.2-0.6l5.8,0.7c0.9,0.1,1.7-0.5,1.9-1.4l0.5-2.6C97.6,60.3,97.2,59.6,96.5,59.3z M89,66.4l-0.4,1.1     c-0.1,0.2-0.2,0.2-0.4,0.2L79,63.8c-0.2-0.1-0.2-0.2-0.2-0.4l0.4-1.1c0-0.1,0.1-0.1,0.2-0.2c0.1,0,0.2,0,0.2,0l9.2,3.8     C89,66.1,89.1,66.3,89,66.4z"/></g></g></svg>